<mxfile host="app.diagrams.net" modified="2024-05-11T12:42:27.665Z" agent="Mozilla/5.0 (Windows NT 10.0; Win64; x64) AppleWebKit/537.36 (KHTML, like Gecko) Chrome/124.0.0.0 Safari/537.36" etag="dNeFIUofRq1Ud97hsa4K" version="24.4.0" type="device">
  <diagram name="Page-1" id="ilkOjSHKH0YGuQOjbvGS">
    <mxGraphModel dx="1050" dy="530" grid="1" gridSize="10" guides="1" tooltips="1" connect="1" arrows="1" fold="1" page="1" pageScale="1" pageWidth="827" pageHeight="1169" math="0" shadow="0">
      <root>
        <mxCell id="0" />
        <mxCell id="1" parent="0" />
        <mxCell id="PUucSjbT_JeyXXuD1XuV-5" value="Course" style="swimlane;childLayout=stackLayout;horizontal=1;startSize=50;horizontalStack=0;rounded=1;fontSize=14;fontStyle=0;strokeWidth=2;resizeParent=0;resizeLast=1;shadow=0;dashed=0;align=center;arcSize=4;whiteSpace=wrap;html=1;" vertex="1" parent="1">
          <mxGeometry x="550" y="40" width="160" height="120" as="geometry" />
        </mxCell>
        <mxCell id="PUucSjbT_JeyXXuD1XuV-6" value="title (string)&lt;div&gt;price (float)&lt;/div&gt;&lt;div&gt;instructor (string)&lt;/div&gt;&lt;div&gt;tags (string)&lt;/div&gt;" style="align=left;strokeColor=none;fillColor=none;spacingLeft=4;fontSize=12;verticalAlign=top;resizable=0;rotatable=0;part=1;html=1;" vertex="1" parent="PUucSjbT_JeyXXuD1XuV-5">
          <mxGeometry y="50" width="160" height="70" as="geometry" />
        </mxCell>
        <mxCell id="PUucSjbT_JeyXXuD1XuV-7" value="Student" style="swimlane;childLayout=stackLayout;horizontal=1;startSize=50;horizontalStack=0;rounded=1;fontSize=14;fontStyle=0;strokeWidth=2;resizeParent=0;resizeLast=1;shadow=0;dashed=0;align=center;arcSize=4;whiteSpace=wrap;html=1;" vertex="1" parent="1">
          <mxGeometry x="70" y="40" width="160" height="120" as="geometry" />
        </mxCell>
        <mxCell id="PUucSjbT_JeyXXuD1XuV-8" value="firstName (string)&lt;div&gt;lastName (string)&lt;/div&gt;&lt;div&gt;email (string)&lt;/div&gt;&lt;div&gt;dateRegistered (dateTime)&lt;/div&gt;" style="align=left;strokeColor=none;fillColor=none;spacingLeft=4;fontSize=12;verticalAlign=top;resizable=0;rotatable=0;part=1;html=1;" vertex="1" parent="PUucSjbT_JeyXXuD1XuV-7">
          <mxGeometry y="50" width="160" height="70" as="geometry" />
        </mxCell>
        <mxCell id="PUucSjbT_JeyXXuD1XuV-11" value="Enrollment" style="swimlane;childLayout=stackLayout;horizontal=1;startSize=50;horizontalStack=0;rounded=1;fontSize=14;fontStyle=0;strokeWidth=2;resizeParent=0;resizeLast=1;shadow=0;dashed=0;align=center;arcSize=4;whiteSpace=wrap;html=1;" vertex="1" parent="1">
          <mxGeometry x="310" y="220" width="160" height="120" as="geometry" />
        </mxCell>
        <mxCell id="PUucSjbT_JeyXXuD1XuV-12" value="date (dateTime)&lt;div&gt;price (float)&lt;/div&gt;" style="align=left;strokeColor=none;fillColor=none;spacingLeft=4;fontSize=12;verticalAlign=top;resizable=0;rotatable=0;part=1;html=1;" vertex="1" parent="PUucSjbT_JeyXXuD1XuV-11">
          <mxGeometry y="50" width="160" height="70" as="geometry" />
        </mxCell>
        <mxCell id="PUucSjbT_JeyXXuD1XuV-13" value="" style="edgeStyle=entityRelationEdgeStyle;fontSize=12;html=1;endArrow=ERoneToMany;rounded=0;exitX=0.365;exitY=1.006;exitDx=0;exitDy=0;exitPerimeter=0;entryX=1.025;entryY=0.114;entryDx=0;entryDy=0;entryPerimeter=0;" edge="1" parent="1" source="PUucSjbT_JeyXXuD1XuV-6" target="PUucSjbT_JeyXXuD1XuV-12">
          <mxGeometry width="100" height="100" relative="1" as="geometry">
            <mxPoint x="530" y="330" as="sourcePoint" />
            <mxPoint x="630" y="230" as="targetPoint" />
          </mxGeometry>
        </mxCell>
        <mxCell id="PUucSjbT_JeyXXuD1XuV-14" value="" style="edgeStyle=entityRelationEdgeStyle;fontSize=12;html=1;endArrow=ERoneToMany;rounded=0;entryX=0;entryY=0.5;entryDx=0;entryDy=0;exitX=0.5;exitY=1;exitDx=0;exitDy=0;" edge="1" parent="1" source="PUucSjbT_JeyXXuD1XuV-8" target="PUucSjbT_JeyXXuD1XuV-11">
          <mxGeometry width="100" height="100" relative="1" as="geometry">
            <mxPoint x="70" y="320" as="sourcePoint" />
            <mxPoint x="170" y="220" as="targetPoint" />
          </mxGeometry>
        </mxCell>
      </root>
    </mxGraphModel>
  </diagram>
</mxfile>
